<svg xmlns="http://www.w3.org/2000/svg" viewBox="0 0 44.4 41.55"><title>arrow-dot</title><path class="a" d="M218.53,200.27a20.59,20.59,0,0,0-15,6.37l-.05.06-.26.32a.85.85,0,1,0,1.33,1.07l.23-.29a19.07,19.07,0,0,1,32.79,13.25,19.07,19.07,0,0,1-38.12.85h18.44l-7.44,7.44a.86.86,0,0,0,0,1.21.83.83,0,0,0,.6.25.85.85,0,0,0,.61-.25l8.9-8.9a.64.64,0,0,0,.1-.13l0,0a.45.45,0,0,0,.06-.12s0,0,0-.05l0-.11a.69.69,0,0,0,0-.33l0-.11s0,0,0-.05a.67.67,0,0,0-.06-.12l0,0a.64.64,0,0,0-.1-.13l-8.9-8.9a.86.86,0,1,0-1.21,1.21l7.44,7.44H195.76a.86.86,0,0,0,0,1.71h2a20.77,20.77,0,1,0,20.75-21.63Z" transform="translate(-194.91 -200.27)"/><path class="a" d="M218.53,228.8a.86.86,0,0,0,0,1.71,9.47,9.47,0,0,0,0-18.93.86.86,0,0,0-.85.86.85.85,0,0,0,.85.85,7.76,7.76,0,1,1,0,15.51Z" transform="translate(-194.91 -200.27)"/></svg>