<svg xmlns="http://www.w3.org/2000/svg" viewBox="0 0 41.55 41.55"><defs><style>.a{fill:#2a3b4d;}</style></defs><title>close-icon</title><path class="a" d="M293,324.45a.85.85,0,1,0-1.34,1.05,19.07,19.07,0,0,1-26.23,27.15.85.85,0,1,0-1,1.38A20.78,20.78,0,0,0,293,324.45Z" transform="translate(-255.82 -316.39)"/><path class="a" d="M276.59,318.1a18.94,18.94,0,0,1,11.15,3.59.85.85,0,0,0,1-1.38,20.78,20.78,0,0,0-28.58,29.58.86.86,0,0,0,1.2.15.86.86,0,0,0,.15-1.2,18.86,18.86,0,0,1-4-11.67A19.09,19.09,0,0,1,276.59,318.1Z" transform="translate(-255.82 -316.39)"/><path class="a" d="M286.12,327.65a.85.85,0,0,0-1.21,0L276.59,336l-8.31-8.31a.85.85,0,0,0-1.21,0,.86.86,0,0,0,0,1.21l8.32,8.31-8.32,8.31a.86.86,0,0,0,.61,1.46.85.85,0,0,0,.6-.25l8.31-8.31,8.32,8.31a.82.82,0,0,0,.6.25.86.86,0,0,0,.61-1.46l-8.32-8.31,8.32-8.31A.86.86,0,0,0,286.12,327.65Z" transform="translate(-255.82 -316.39)"/></svg>