<svg xmlns="http://www.w3.org/2000/svg" viewBox="0 0 41.55 41.55"><defs><style>.a{fill:#2a3b4d;}</style></defs><title>cloud</title><path class="a" d="M160.47,316.39a20.78,20.78,0,1,0,20.78,20.78A20.8,20.8,0,0,0,160.47,316.39Zm0,39.85a19.07,19.07,0,1,1,19.07-19.07A19.1,19.1,0,0,1,160.47,356.24Z" transform="translate(-139.69 -316.39)"/><path class="a" d="M171.82,332.92a8.93,8.93,0,0,0-16.76-2.54,6.12,6.12,0,0,0-1.2-.13,5.4,5.4,0,0,0-5.29,4.49,5.58,5.58,0,0,0-4.26,5.41,5.65,5.65,0,0,0,5.74,5.56h15a.86.86,0,1,0,0-1.71h-15a4,4,0,0,1-4-3.85,3.83,3.83,0,0,1,3.44-3.82.87.87,0,0,0,.77-.87,3.62,3.62,0,0,1,3.64-3.5,3.72,3.72,0,0,1,1.35.25.86.86,0,0,0,1.11-.48,7.22,7.22,0,0,1,13.88,2,.83.83,0,0,0,.72.76,4.8,4.8,0,0,1,4.14,4.73,4.74,4.74,0,0,1-4.8,4.79H169a.86.86,0,1,0,0,1.71h1.25a6.49,6.49,0,0,0,1.56-12.79Z" transform="translate(-139.69 -316.39)"/></svg>