<svg xmlns="http://www.w3.org/2000/svg" viewBox="0 0 41.55 41.55"><defs><style>.a{fill:#2a3b4d;}</style></defs><title>cog</title><path class="a" d="M172.47,437a.86.86,0,0,0-1.2.18.85.85,0,0,0,.18,1.19,19,19,0,1,1-4-2.27.85.85,0,0,0,.66-1.57,20.53,20.53,0,0,0-8.09-1.64A20.77,20.77,0,1,0,172.47,437Z" transform="translate(-139.29 -432.92)"/><path class="a" d="M165.43,447.66a.86.86,0,0,0,1.15.38l2.75-1.4,1.48,2.56-2.59,1.68a.86.86,0,0,0-.36.92,8.09,8.09,0,0,1,0,3.79.87.87,0,0,0,.36.92l2.59,1.69-1.48,2.56-2.74-1.4a.85.85,0,0,0-1,.14,8.06,8.06,0,0,1-3.29,1.9.86.86,0,0,0-.61.77l-.17,3.09h-3l-.15-3.08a.88.88,0,0,0-.62-.78,8,8,0,0,1-3.29-1.89.85.85,0,0,0-1-.15l-2.76,1.4-1.47-2.56,2.58-1.68a.86.86,0,0,0,.37-.92,8,8,0,0,1,0-3.79.86.86,0,0,0-.36-.92l-2.59-1.69,1.48-2.56,2.75,1.4a.85.85,0,0,0,1-.14,8,8,0,0,1,3.28-1.9.83.83,0,0,0,.61-.77l.17-3.09h3l.16,3.07a.87.87,0,0,0,.9.81.84.84,0,0,0,.8-.9l-.2-3.88a.85.85,0,0,0-.85-.81h-4.58a.86.86,0,0,0-.85.81l-.18,3.31a9.9,9.9,0,0,0-3,1.71l-2.94-1.51a.86.86,0,0,0-1.13.34l-2.29,4a.85.85,0,0,0,.27,1.14l2.78,1.81a9.77,9.77,0,0,0,0,3.41l-2.77,1.8a.86.86,0,0,0-.28,1.14l2.29,4a.84.84,0,0,0,1.12.33l3-1.5a9.88,9.88,0,0,0,2.95,1.7l.17,3.3a.85.85,0,0,0,.85.81h4.58a.86.86,0,0,0,.85-.81l.18-3.31a9.57,9.57,0,0,0,3-1.71l2.95,1.51a.86.86,0,0,0,1.12-.33l2.3-4a.86.86,0,0,0-.28-1.14l-2.77-1.81a10,10,0,0,0,0-3.41l2.78-1.79a.86.86,0,0,0,.27-1.15l-2.28-4a.85.85,0,0,0-1.13-.34l-3.48,1.76A.86.86,0,0,0,165.43,447.66Z" transform="translate(-139.29 -432.92)"/><path class="a" d="M159.74,451.89a.85.85,0,1,0-.29-1.68,3.49,3.49,0,0,0-2.29,1.46,3.53,3.53,0,0,0,.87,4.93,3.46,3.46,0,0,0,2,.65,3.34,3.34,0,0,0,.62-.06,3.54,3.54,0,0,0,2.87-4.1.85.85,0,0,0-1-.7.86.86,0,0,0-.69,1,1.83,1.83,0,0,1-.3,1.38,1.88,1.88,0,0,1-1.19.75,1.81,1.81,0,0,1-1.37-.31,1.84,1.84,0,0,1,.73-3.31Z" transform="translate(-139.29 -432.92)"/></svg>