<svg xmlns="http://www.w3.org/2000/svg" viewBox="0 0 41.55 41.55"><defs><style>.a{fill:#2a3b4d;}</style></defs><title>compass</title><path class="a" d="M218.53,258.33a20.78,20.78,0,1,0,20.78,20.78A20.8,20.8,0,0,0,218.53,258.33Zm0,39.85a19.07,19.07,0,1,1,19.07-19.07A19.1,19.1,0,0,1,218.53,298.18Z" transform="translate(-197.76 -258.33)"/><path class="a" d="M233,278.18a14.53,14.53,0,0,0-14.48-13.59.86.86,0,0,0,0,1.71,12.83,12.83,0,0,1,12.75,11.61l-1.71-.26a11.08,11.08,0,0,0-11-9.69,11.21,11.21,0,0,0-9,4.52.85.85,0,0,0,.18,1.19.86.86,0,0,0,1.2-.17,9.43,9.43,0,0,1,16.86,3.88l-5-.75a4.93,4.93,0,1,0,0,5l10.15-1.53a1,1,0,0,0,.07-1.88Zm-14.48,4.15a3.23,3.23,0,1,1,3.23-3.22A3.22,3.22,0,0,1,218.53,282.33Zm4.89-2.56a4.89,4.89,0,0,0,.05-.66,4.65,4.65,0,0,0-.05-.66l4.37.66Z" transform="translate(-197.76 -258.33)"/></svg>