<svg xmlns="http://www.w3.org/2000/svg" viewBox="0 0 41.55 41.55"><defs><style>.a{fill:#2a3b4d;}</style></defs><title>exclamation</title><path class="a" d="M349.06,206.07l-.06,0-.32-.26a.86.86,0,0,0-1.2.13.85.85,0,0,0,.13,1.2l.29.24a18.87,18.87,0,0,1,5.82,13.72A19.07,19.07,0,1,1,334.66,202a.86.86,0,0,0,.85-.86.85.85,0,0,0-.85-.85,20.77,20.77,0,1,0,14.4,5.8Z" transform="translate(-313.88 -200.27)"/><path class="a" d="M335.51,210.58a.86.86,0,0,0-1.71,0v15.21a.86.86,0,1,0,1.71,0Z" transform="translate(-313.88 -200.27)"/><path class="a" d="M334.66,230.07a.85.85,0,0,0-.86.85V231a.86.86,0,0,0,1.71,0v-.09A.85.85,0,0,0,334.66,230.07Z" transform="translate(-313.88 -200.27)"/></svg>