<svg xmlns="http://www.w3.org/2000/svg" viewBox="0 0 41.55 41.55"><defs><style>.a{fill:#2a3b4d;}</style></defs><title>factory</title><path class="a" d="M276.56,490.58a20.78,20.78,0,1,0,13.22,36.8l0,0,.07-.07.05-.06,0-.07,0-.07,0-.08,0-.08s0,0,0-.08a.28.28,0,0,0,0-.09v-.07a.31.31,0,0,0,0-.1s0-.05,0-.07l0-.08,0-.08a.16.16,0,0,0,0-.07.35.35,0,0,0-.05-.08l0,0,0,0-.06-.06a.18.18,0,0,0-.07-.05l-.06,0-.08,0-.07,0-.08,0-.08,0H270.3a.86.86,0,0,0,0,1.71h16.28a19.07,19.07,0,1,1,9.05-16.23A18.9,18.9,0,0,1,292,522.62a.86.86,0,0,0,.18,1.2.87.87,0,0,0,1.2-.19,20.78,20.78,0,0,0-16.77-33.05Z" transform="translate(-255.79 -490.58)"/><path class="a" d="M290.32,512.36l-.69-10.07a.87.87,0,0,0-.86-.79h-3.22a.85.85,0,0,0-.85.79l-.57,8.1a.86.86,0,0,0,.8.91.84.84,0,0,0,.91-.79l.5-7.3H288l.59,8.55-6.11,1.49-.76-11a.86.86,0,0,0-.86-.79h-3.22a.85.85,0,0,0-.85.79l-.51,7.32a.86.86,0,0,0,.79.91.85.85,0,0,0,.91-.8l.46-6.51h1.63l.72,10.44-2.86.7v-1.93a.86.86,0,0,0-1.05-.83l-12.42,3a.86.86,0,0,0-.65.83v6.38a.85.85,0,1,0,1.7,0v-5.7l10.71-2.6v1.92a.86.86,0,0,0,.33.68.82.82,0,0,0,.73.15l11.36-2.75v10a.86.86,0,1,0,1.71,0V512.4S290.33,512.37,290.32,512.36Z" transform="translate(-255.79 -490.58)"/><path class="a" d="M268.31,519.6v.95a.85.85,0,0,0,.85.85.86.86,0,0,0,.86-.85v-.95a.86.86,0,1,0-1.71,0Z" transform="translate(-255.79 -490.58)"/><path class="a" d="M272.17,519.6v.95a.85.85,0,1,0,1.7,0v-.95a.85.85,0,1,0-1.7,0Z" transform="translate(-255.79 -490.58)"/><path class="a" d="M276.26,519.6v.95a.85.85,0,1,0,1.7,0v-.95a.85.85,0,1,0-1.7,0Z" transform="translate(-255.79 -490.58)"/><path class="a" d="M280.12,519.6v.95a.85.85,0,1,0,1.7,0v-.95a.85.85,0,1,0-1.7,0Z" transform="translate(-255.79 -490.58)"/></svg>