<svg xmlns="http://www.w3.org/2000/svg" viewBox="0 0 41.55 41.55"><defs><style>.a{fill:#2a3b4d;}</style></defs><title>flag</title><path class="a" d="M218.53,316.39a20.78,20.78,0,0,0-10,39,.86.86,0,0,0,.85,0,.84.84,0,0,0,.42-.73V343.36a9.48,9.48,0,0,0,3.74.74,22.59,22.59,0,0,0,6.54-1.33c3.54-1.09,6.88-2.11,10.18-.09a.85.85,0,0,0,1.3-.72V328a.85.85,0,0,0-.41-.73c-4-2.43-7.83-1.24-11.57-.09-3.4,1.05-6.61,2-9.78.32v-1.91h.81a.85.85,0,0,0,.85-.85.86.86,0,0,0-.85-.86h-3.32a.86.86,0,0,0-.85.86.85.85,0,0,0,.85.85h.8v27.49a19.07,19.07,0,1,1,10.47,3.13.85.85,0,0,0-.85.85.86.86,0,0,0,.85.86,20.78,20.78,0,1,0,0-41.56Zm-8.76,13c3.51,1.5,6.94.44,10.28-.58s6.61-2,9.77-.33v12c-3.5-1.49-6.94-.44-10.27.59s-6.61,2-9.78.32Z" transform="translate(-197.76 -316.39)"/></svg>