<svg xmlns="http://www.w3.org/2000/svg" viewBox="0 0 41.55 41.55"><defs><style>.a{fill:#2a3b4d;}</style></defs><title>graph</title><path class="a" d="M297.37,453.29a20.65,20.65,0,0,0-3.61-11.7.86.86,0,0,0-1.19-.23.85.85,0,0,0-.22,1.19,19.06,19.06,0,0,1-2.19,24.13v-26a.85.85,0,0,0-.85-.85h-6a.85.85,0,0,0-.85.85.86.86,0,0,0,.85.86h5.12v26.65a19.17,19.17,0,0,1-4.26,2.57V443.66a.86.86,0,0,0-.86-.85.85.85,0,0,0-.85.85v27.77l-1,.31V453a.85.85,0,0,0-.85-.86h-6a.86.86,0,0,0,0,1.71h5.13V472.1a19.31,19.31,0,0,1-3.15.26c-.37,0-.75,0-1.12,0V455.92a.86.86,0,0,0-1.71,0v16.23c-.35,0-.69-.11-1-.18v-9.4a.86.86,0,0,0-.86-.85h-6a.86.86,0,1,0,0,1.71H271v8.1a19.07,19.07,0,0,1-4.27-1.91v-4.09a.86.86,0,0,0-1.71,0v2.92a17.82,17.82,0,0,1-1.68-1.45V437.23l1.82,1.82a.85.85,0,0,0,1.2,0,.85.85,0,0,0,0-1.21l-3.27-3.27,0,0a.74.74,0,0,0-.25-.17h0a.88.88,0,0,0-.27-.06h-.09a.78.78,0,0,0-.21,0l-.08,0a.73.73,0,0,0-.26.17l-3.27,3.27a.86.86,0,0,0,1.21,1.21l1.81-1.82v27.89a19,19,0,0,1-1.5-21.49.85.85,0,1,0-1.47-.87,20.77,20.77,0,0,0,3.14,25.12.69.69,0,0,0,.19.19,20.88,20.88,0,0,0,3.32,2.67,1,1,0,0,0,.24.15,20.39,20.39,0,0,0,6,2.57l.14,0a21,21,0,0,0,4.84.57,20.51,20.51,0,0,0,6.91-1.19.6.6,0,0,0,.19-.06,20.79,20.79,0,0,0,6.06-3.46.77.77,0,0,0,.19-.16A20.75,20.75,0,0,0,297.37,453.29Z" transform="translate(-255.82 -432.52)"/><path class="a" d="M267.87,436.33a19.06,19.06,0,0,1,20.27,1.79.86.86,0,0,0,1-1.36,20.83,20.83,0,0,0-22.09-1.95.85.85,0,0,0,.78,1.52Z" transform="translate(-255.82 -432.52)"/></svg>