<svg xmlns="http://www.w3.org/2000/svg" viewBox="0 0 41.55 41.55"><defs><style>.a{fill:#2a3b4d;}</style></defs><title>hand-shake</title><path class="a" d="M413,448.77a.36.36,0,0,0,0-.11,0,0,0,0,0,0,0,.78.78,0,0,0-.17-.26v0h0a.78.78,0,0,0-.26-.17h0a.73.73,0,0,0-.3-.06H412l-.11,0h0a.8.8,0,0,0-.27.18h0l-4,4-6.87-6.88,11.19-11.19a.86.86,0,0,0-1.21-1.21l-11.79,11.79-1.47,1.48h-8.28l-1.27-1.26h0l-.08-.09L381,438.26a19,19,0,0,1,20.54-1.88.85.85,0,1,0,.79-1.51,20.77,20.77,0,0,0-23.15,2.68l-.06,0,0,0A20.75,20.75,0,1,0,413,448.77Zm-15.26-.69a.84.84,0,0,0,.6-.25l1.13-1.12,6.86,6.87-13.5,13.51-1.42-1.43,3.18-3.18a.86.86,0,1,0-1.21-1.21l-3.18,3.18L388.77,463l3.18-3.18a.85.85,0,0,0,0-1.21.83.83,0,0,0-1.2,0l-3.19,3.18-1.42-1.43,3.18-3.18a.86.86,0,0,0-1.21-1.21l-3.18,3.19-1.43-1.43,5.88-5.88h2.17l1.88,1.87a4.18,4.18,0,0,0,5.92,0,.85.85,0,0,0,0-1.2l-4.46-4.46Zm3.33,15.64a.82.82,0,0,1-1.13,0l-.66-.67,1.13-1.13.66.67A.8.8,0,0,1,401.07,463.72Zm-2.1,1.77a.79.79,0,0,1-.23.56.82.82,0,0,1-1.13,0l-.67-.66,1.13-1.13.67.66A.81.81,0,0,1,399,465.49Zm-2.34,2.33a.79.79,0,0,1-.23.57.82.82,0,0,1-1.13,0l-.66-.67,1.13-1.12.66.66A.79.79,0,0,1,396.63,467.82Zm5.65-6.44-.66-.66,1.12-1.13.67.66a.8.8,0,0,1,0,1.13A.82.82,0,0,1,402.28,461.38Zm-13.52-13.3h3.72l4.95,4.95a2.43,2.43,0,0,1-1,.23,2.47,2.47,0,0,1-1.75-.72l-2.13-2.13a.86.86,0,0,0-.6-.25H389a1,1,0,0,0-.3.06h0a1,1,0,0,0-.28.18,1.69,1.69,0,0,1-2.26.13.86.86,0,0,0-1.2.13.85.85,0,0,0,.13,1.2,3.36,3.36,0,0,0,1.25.63l-4,4L380,454.21l7.29-7.29.91.91A.86.86,0,0,0,388.76,448.08Zm-9.06-8.7,6.33,6.33L378.74,453l-4.48-4.49A19,19,0,0,1,379.7,439.38Zm13,33a19.09,19.09,0,0,1-19.07-19.07,19.53,19.53,0,0,1,.2-2.77l4.29,4.29,3.55,3.55,2.64,2.64h0l7.9,7.9a.85.85,0,0,0,1.17,0l.66.67a2.53,2.53,0,0,0,1.78.73,2.49,2.49,0,0,0,1.77-.73,2.54,2.54,0,0,0,.72-1.62,6.92,6.92,0,0,1,3.95-3.06,2.46,2.46,0,0,0,.72-1.61,2.5,2.5,0,0,0,1.62-4.27l-.67-.66,4.19-4.19,3.47-3.47a20.06,20.06,0,0,1,.18,2.57A19.09,19.09,0,0,1,392.72,472.36Z" transform="translate(-371.94 -432.52)"/></svg>