<svg xmlns="http://www.w3.org/2000/svg" viewBox="0 0 41.55 41.55"><defs><style>.a{fill:#2a3b4d;}</style></defs><title>house</title><path class="a" d="M218.53,490.58a20.78,20.78,0,1,0,13.22,36.8l0,0,.07-.07,0-.06.05-.07,0-.07,0-.08,0-.08s0,0,0-.08a.28.28,0,0,0,0-.09v-.07a.31.31,0,0,0,0-.1s0-.05,0-.07l0-.08,0-.08a.43.43,0,0,0,0-.07.35.35,0,0,0-.05-.08l0,0,0,0-.06-.06a.18.18,0,0,0-.07-.05l-.06,0-.08,0-.07,0-.08,0-.08,0h-5.71v-6.56a.86.86,0,0,0-.86-.85h-4.15a.85.85,0,0,0-.85.85v6.56H212.7a.86.86,0,1,0,0,1.71h15.85a19.07,19.07,0,1,1,9-16.23,18.9,18.9,0,0,1-3.68,11.27.86.86,0,0,0,.18,1.2.87.87,0,0,0,1.2-.19,20.78,20.78,0,0,0-16.77-33.05Zm2.95,35.29v-5.71h2.44v5.71Z" transform="translate(-197.76 -490.58)"/><path class="a" d="M215.86,510.09h-2.43a.86.86,0,0,0-.85.86v2.42a.85.85,0,1,0,1.7,0V511.8h1.58a.85.85,0,0,0,.85-.85A.86.86,0,0,0,215.86,510.09Z" transform="translate(-197.76 -490.58)"/><path class="a" d="M215.86,518.46h-2.43a.85.85,0,0,0-.85.85v2.43a.85.85,0,0,0,1.7,0v-1.58h1.58a.85.85,0,1,0,0-1.7Z" transform="translate(-197.76 -490.58)"/><path class="a" d="M220.62,510.09a.86.86,0,0,0-.85.86v2.42a.86.86,0,1,0,1.71,0V511.8h1.57a.85.85,0,0,0,.85-.85.86.86,0,0,0-.85-.86Z" transform="translate(-197.76 -490.58)"/><path class="a" d="M227.64,520.16a.85.85,0,0,0,.85-.85V510l2.22,1.5a.85.85,0,0,0,.48.15.88.88,0,0,0,.71-.38.86.86,0,0,0-.23-1.19L219,501.5a.84.84,0,0,0-1,0L205.4,510a.85.85,0,0,0,.95,1.42l2.22-1.5v13.36a.86.86,0,0,0,1.71,0V508.8l8.25-5.57,8.26,5.57v10.51A.85.85,0,0,0,227.64,520.16Z" transform="translate(-197.76 -490.58)"/><path class="a" d="M212.32,504.33a.85.85,0,0,0,.85-.86V502a.85.85,0,0,0-.85-.86h-2.9a.85.85,0,0,0-.85.86v3.46a.86.86,0,0,0,1.71,0v-2.61h1.18v.6A.86.86,0,0,0,212.32,504.33Z" transform="translate(-197.76 -490.58)"/></svg>