<svg xmlns="http://www.w3.org/2000/svg" viewBox="0 0 41.55 41.55"><defs><style>.a{fill:#2a3b4d;}</style></defs><title>laptop</title><path class="a" d="M180,286.22a20.79,20.79,0,1,0-33.18,8.53,1.12,1.12,0,0,0,.2.18,20.74,20.74,0,0,0,12.85,4.94H174.7a.88.88,0,0,0,.68-.33.86.86,0,0,0,.15-.73l-1.11-4.32A20.93,20.93,0,0,0,180,286.22Zm-8.9,1.24H149.84V271.9H171.1Zm2.52,3.92a.86.86,0,0,0-1.66.42l1.64,6.38H160.47a19,19,0,0,1-12-4.29l1.21-4.73H172a.85.85,0,0,0,.85-.85V271a.85.85,0,0,0-.85-.85H149a.85.85,0,0,0-.85.85V288.2L147,292.6a19.07,19.07,0,1,1,26.92,0Z" transform="translate(-139.69 -258.33)"/><path class="a" d="M151.65,286.51H169a.86.86,0,0,0,0-1.71H152.5V274.55h8a.85.85,0,0,0,0-1.7h-8.82a.86.86,0,0,0-.86.85v11.95A.86.86,0,0,0,151.65,286.51Z" transform="translate(-139.69 -258.33)"/><path class="a" d="M164.45,274.55h3.42v8.54a.86.86,0,1,0,1.71,0V273.7a.85.85,0,0,0-.86-.85h-4.27a.85.85,0,0,0,0,1.7Z" transform="translate(-139.69 -258.33)"/></svg>