<svg xmlns="http://www.w3.org/2000/svg" viewBox="0 0 41.55 41.55"><defs><style>.a{fill:#2a3b4d;}</style></defs><title>link</title><path class="a" d="M160.47,532.13a20.78,20.78,0,1,1,11.62-38,.85.85,0,1,1-1,1.41,19.1,19.1,0,1,0,5.16,5.17.86.86,0,1,1,1.42-1,20.78,20.78,0,0,1-17.24,32.38Z" transform="translate(-139.69 -490.58)"/><path class="a" d="M161.57,515a4.64,4.64,0,0,1-3.32-1.37.85.85,0,0,1,1.2-1.21,3,3,0,0,0,4.23,0l5.78-5.78a3,3,0,1,0-4.23-4.22l-4,4a.85.85,0,1,1-1.21-1.2l4-4a4.7,4.7,0,0,1,6.64,6.64l-5.77,5.78A4.67,4.67,0,0,1,161.57,515Z" transform="translate(-139.69 -490.58)"/><path class="a" d="M153.6,522.92a4.62,4.62,0,0,1-3.32-1.37,4.7,4.7,0,0,1,0-6.64l5.77-5.78a4.7,4.7,0,0,1,6.64,0,.85.85,0,1,1-1.2,1.21,3,3,0,0,0-4.23,0l-5.78,5.78a3,3,0,1,0,4.23,4.22l4-4a.85.85,0,0,1,1.21,1.2l-4,4A4.66,4.66,0,0,1,153.6,522.92Z" transform="translate(-139.69 -490.58)"/></svg>