<svg xmlns="http://www.w3.org/2000/svg" viewBox="0 0 41.55 41.55"><defs><style>.a{fill:#2a3b4d;}</style></defs><title>member</title><path class="a" d="M334.66,316.39a20.78,20.78,0,0,0-9.87,39.06.69.69,0,0,0,.19.1,20.65,20.65,0,0,0,9.68,2.4.86.86,0,0,0,.85-.86.85.85,0,0,0-.85-.85,19,19,0,0,1-8.52-2v-3.91a6.11,6.11,0,0,1,6.1-6.1h4.83a6.12,6.12,0,0,1,6.13,6.1v4.42a.85.85,0,0,0,1.25.76,20.78,20.78,0,0,0-9.79-39.11Zm10.24,36.86v-2.93a7.82,7.82,0,0,0-7.83-7.81h-4.83a7.81,7.81,0,0,0-7.81,7.81v2.94a19.06,19.06,0,1,1,20.47,0Z" transform="translate(-313.88 -316.39)"/><path class="a" d="M334.66,324.12a8.41,8.41,0,0,0,0,16.82.85.85,0,0,0,.85-.85.86.86,0,0,0-.85-.86,6.68,6.68,0,1,1,2.43-.45.84.84,0,0,0-.48,1.1.85.85,0,0,0,1.1.49,8.41,8.41,0,0,0-3-16.25Z" transform="translate(-313.88 -316.39)"/></svg>