<svg xmlns="http://www.w3.org/2000/svg" viewBox="0 0 42.14 41.39"><defs><style>.a{fill:#2a3b4d;}</style></defs><title>mountain</title><path class="a" d="M297.71,402.22l-1.18-1.17a20.74,20.74,0,0,0-10-24.09.85.85,0,0,0-.81,1.5,19.07,19.07,0,0,1,10,16.77,18.77,18.77,0,0,1-.52,4.43l-3-3.05a.88.88,0,0,0-1.21,0l-12,12-6-6a.86.86,0,0,0-1.21,0l-7.3,7.3a18.91,18.91,0,0,1-4.7-5.75l8.58-8.59,2.12,2.12a.86.86,0,0,0,1.21,0l2.11-2.11,2.09,2.08a.86.86,0,0,0,1.21,0l2.12-2.12,2.17,2.17a.85.85,0,0,0,.61.25.83.83,0,0,0,.6-.25l2.21-2.21,2.2,2.2a.86.86,0,1,0,1.21-1.21l-11-11,0,0v-2.22H282a.87.87,0,0,0,.86-.86v-4a.87.87,0,0,0-.86-.86h-5.69a.86.86,0,0,0-.85.86v7.61L259,402.54a19.09,19.09,0,0,1,15.14-26.22.85.85,0,1,0-.22-1.69A20.78,20.78,0,0,0,264,411.76,20.59,20.59,0,0,0,276.59,416a.86.86,0,1,0,0-1.71A18.83,18.83,0,0,1,265.84,411l6.52-6.52,5.95,6a.86.86,0,0,0,1.21,0l12-12,5,5a.86.86,0,1,0,1.21-1.21Zm-20.55-22.93h4v2.28h-4Zm6.41,15-1.6,1.61-2.17-2.17a.85.85,0,0,0-1.21,0l-2.12,2.12-2.09-2.09a.86.86,0,0,0-1.21,0l-2.12,2.12-1.51-1.52,7-7.05Z" transform="translate(-255.82 -374.62)"/></svg>