<svg xmlns="http://www.w3.org/2000/svg" viewBox="0 0 41.55 42.69"><defs><style>.a{fill:#2a3b4d;}</style></defs><title>padlock</title><path class="a" d="M461.56,493.59a.85.85,0,0,0-1.17.28.86.86,0,0,0,.28,1.18,19.07,19.07,0,1,1-19.78,0,.85.85,0,1,0-.89-1.46,20.78,20.78,0,1,0,21.56,0Z" transform="translate(-430.01 -489.44)"/><path class="a" d="M440.16,501.39a.85.85,0,0,0-.86.86V523.5a.85.85,0,0,0,.86.85H453.7a.85.85,0,1,0,0-1.7H441V503.1h19.55v19.55h-3.88a.85.85,0,1,0,0,1.7h4.73a.85.85,0,0,0,.85-.85V502.25a.85.85,0,0,0-.85-.86H459v-3.71a8.24,8.24,0,1,0-16.47,0v3.71Zm4.09-3.71a6.53,6.53,0,0,1,13.06,0v3.71H444.25Z" transform="translate(-430.01 -489.44)"/><path class="a" d="M454.39,510.59a3.61,3.61,0,1,0-5.83,2.83l-1.3,2.84a.85.85,0,0,0,.05.82.87.87,0,0,0,.72.39h2.75a.86.86,0,1,0,0-1.71h-1.42l1.06-2.32a.85.85,0,0,0-.42-1.13,1.9,1.9,0,1,1,1.57,0,.85.85,0,0,0-.42,1.13l1.61,3.53a.84.84,0,0,0,.78.5.77.77,0,0,0,.35-.08.84.84,0,0,0,.42-1.13l-1.3-2.84A3.62,3.62,0,0,0,454.39,510.59Z" transform="translate(-430.01 -489.44)"/></svg>