<svg xmlns="http://www.w3.org/2000/svg" viewBox="0 0 41.53 39.55"><defs><style>.a{fill:#2a3b4d;}</style></defs><title>pencil</title><path class="a" d="M469.65,444.6s0,0,0,0a20.8,20.8,0,0,0-9.77-10l0,0h0a1.4,1.4,0,0,0-.28-.06h0a.87.87,0,0,0-.28.05l0,0a1,1,0,0,0-.25.16h0L446.67,447h0a1.27,1.27,0,0,0-.18.27v0h0l-6,15.43h0a1,1,0,0,0-.06.29s0,.05,0,.08a.78.78,0,0,0,0,.21l0,.09a.79.79,0,0,0,.17.25h0l4.87,4.87a.84.84,0,0,0,1.2,0,.85.85,0,0,0,0-1.21l-3.94-3.94,14-5.47a.84.84,0,0,0,.54-.24l11.22-11.23a19.06,19.06,0,1,1-31.25-6.59.86.86,0,0,0-1.21-1.21,20.77,20.77,0,1,0,33.56,6Zm-10-8.18a19.1,19.1,0,0,1,4.62,3.39c.44.44.85.89,1.24,1.36l-11.71,11.71-2.37-2.37,6.94-6.93a.86.86,0,0,0,0-1.21.85.85,0,0,0-1.21,0l-6.93,6.93-1.73-1.73Zm-16.89,25.09,1.27-3.26,2,2Zm5-1.95-3.05-3,2.9-7.42,5.59,5.59h0l2,2Zm9-3.74L455,454.09l11.53-11.54a18.53,18.53,0,0,1,1.28,2.18Z" transform="translate(-430.01 -434.51)"/></svg>