<svg xmlns="http://www.w3.org/2000/svg" viewBox="0 0 41.55 41.55"><defs><style>.a{fill:#2a3b4d;}</style></defs><title>phone-held</title><path class="a" d="M160.47,374.45a20.86,20.86,0,0,0-20.72,19.21,1.34,1.34,0,0,0,0,.2c0,.05,0,.09,0,.14a.85.85,0,0,0,.85.86H148a.84.84,0,0,0,.6-.25,10.61,10.61,0,0,0,3.13-7.55v-1.81a1.93,1.93,0,0,1,1,1.71v15.66H140.55a.85.85,0,1,0,0,1.7h12.27v1.26a2.05,2.05,0,0,0,2.05,2.05h12a2.05,2.05,0,0,0,2-2.05v-1.26H170a2.59,2.59,0,0,0,1.92-4.35,2.58,2.58,0,0,0,0-3.51,2.56,2.56,0,0,0,0-3.5A2.6,2.6,0,0,0,170,388.6h-1.05v-3.43a2,2,0,0,0-2-2h-12a2,2,0,0,0-1.74,1,3.57,3.57,0,0,0-2.22-.76.85.85,0,0,0-.85.85v2.86a8.9,8.9,0,0,1-2.38,6.09h-6.16a19.06,19.06,0,1,1,4.07,14,.86.86,0,0,0-1.2-.14.85.85,0,0,0-.13,1.2,20.78,20.78,0,1,0,16.21-33.77Zm10.39,20.26a.9.9,0,0,1-.9.9h-1.05v-1.8H170A.9.9,0,0,1,170.86,394.71Zm0,3.5a.9.9,0,0,1-.9.9h-1.05v-1.8H170A.9.9,0,0,1,170.86,398.21Zm-3.66-8.76v13.33H154.53V388H167.2Zm-.34,16.47h-12a.34.34,0,0,1-.34-.34v-1.1H167.2v1.1A.34.34,0,0,1,166.86,405.92Zm3.1-3.3h-1.05v-1.8H170a.9.9,0,0,1,0,1.8Zm0-12.32a.9.9,0,1,1,0,1.8h-1.05v-1.8Zm-15.09-5.47h12a.34.34,0,0,1,.34.34v1.1H154.53v-1.1A.34.34,0,0,1,154.87,384.83Z" transform="translate(-139.69 -374.45)"/></svg>