<svg xmlns="http://www.w3.org/2000/svg" viewBox="0 0 41.55 41.55"><defs><style>.a{fill:#2a3b4d;}</style></defs><title>question</title><path class="a" d="M407.12,264.13l-.06-.05-.32-.26a.86.86,0,0,0-1.2.13.85.85,0,0,0,.13,1.2l.29.24A19.07,19.07,0,1,1,392.72,260a.86.86,0,0,0,0-1.71,20.77,20.77,0,1,0,14.4,5.8Z" transform="translate(-371.94 -258.33)"/><path class="a" d="M386.17,274.17a.86.86,0,1,0,1.71,0,4.84,4.84,0,1,1,4.84,4.84.87.87,0,0,0-.86.86v4a.86.86,0,1,0,1.71,0v-3.18a6.55,6.55,0,1,0-7.4-6.5Z" transform="translate(-371.94 -258.33)"/><path class="a" d="M392.72,288.13a.86.86,0,0,0-.86.85v.09a.86.86,0,0,0,.86.85.85.85,0,0,0,.85-.85V289A.85.85,0,0,0,392.72,288.13Z" transform="translate(-371.94 -258.33)"/></svg>