<svg xmlns="http://www.w3.org/2000/svg" viewBox="0 0 41.55 41.55"><defs><style>.a{fill:#2a3b4d;}</style></defs><title>refresh</title><path class="a" d="M257.72,281.87a19.6,19.6,0,0,1-.2-2.76,19.08,19.08,0,0,1,37.1-6.25.85.85,0,0,0,1.61-.55,20.78,20.78,0,0,0-40.41,6.8,21.54,21.54,0,0,0,.21,3,.87.87,0,0,0,.85.73H257A.85.85,0,0,0,257.72,281.87Z" transform="translate(-255.82 -258.33)"/><path class="a" d="M297.14,276a.85.85,0,1,0-1.69.25,19.29,19.29,0,0,1,.21,2.84,19.07,19.07,0,0,1-37.11,6.18.86.86,0,1,0-1.62.55,20.78,20.78,0,0,0,40.44-6.73A21.21,21.21,0,0,0,297.14,276Z" transform="translate(-255.82 -258.33)"/><path class="a" d="M276.59,270a9.1,9.1,0,0,1,8.4,5.57.86.86,0,0,0,1.58-.67,10.82,10.82,0,0,0-20.75,3.23l-1.59-1.48a.86.86,0,0,0-1.17,1.25l2.69,2.5a1,1,0,0,0,.17.13.86.86,0,0,0,1.41,0l.16-.13,2.7-2.5a.86.86,0,1,0-1.17-1.25L267.55,278A9.13,9.13,0,0,1,276.59,270Z" transform="translate(-255.82 -258.33)"/><path class="a" d="M276.59,289.93a10.83,10.83,0,0,0,10.77-9.77l1.6,1.49a.89.89,0,0,0,.58.23.86.86,0,0,0,.59-1.48l-2.69-2.51-.18-.13a.84.84,0,0,0-.7-.36.86.86,0,0,0-.7.36l-.17.13L283,280.4a.86.86,0,1,0,1.17,1.25l1.45-1.36a9.11,9.11,0,0,1-17.45,2.31.85.85,0,0,0-1.11-.46.84.84,0,0,0-.46,1.12A10.78,10.78,0,0,0,276.59,289.93Z" transform="translate(-255.82 -258.33)"/></svg>