<svg xmlns="http://www.w3.org/2000/svg" viewBox="0 0 41.55 41.55"><defs><style>.a{fill:#2a3b4d;}</style></defs><title>scales</title><path class="a" d="M355.38,451.76a.86.86,0,0,0-1.71.12c0,.47.05.94.05,1.41a19.1,19.1,0,0,1-16.31,18.87v-6.63a.86.86,0,0,0-.86-.85h-3.79a.86.86,0,0,0-.86.85v6.63a19.07,19.07,0,1,1,16.24-32.35.86.86,0,1,0,1.21-1.21,20.78,20.78,0,1,0-17.05,35.33.81.81,0,0,0,.46.14h3.79a.86.86,0,0,0,.47-.14,20.8,20.8,0,0,0,18.41-20.64C355.43,452.78,355.41,452.27,355.38,451.76ZM335.7,472.33c-.35,0-.69,0-1,0s-.7,0-1.05,0v-5.94h2.09Z" transform="translate(-313.88 -432.52)"/><path class="a" d="M345.72,449.71l0,0,0,0-.05,0,0-.05,0,0-.05,0-.06,0h0l-.06,0-.06,0h0l-.06,0h0l-7-1.21a3.53,3.53,0,0,0-2.67-3.18v-2.26a.86.86,0,1,0-1.71,0v2.26a3.57,3.57,0,0,0-2.38,2l-7-1.21h-.39l0,0-.09,0,0,0h0l0,0-.07,0,0,0,0,0-.06.05,0,0,0,0a.21.21,0,0,1,0,.06v0l-4,7.08s0,0,0,0l0,.08s0,.05,0,.08,0,.05,0,.08,0,.06,0,.09V455a4.83,4.83,0,1,0,9.65,0v-1.42a.28.28,0,0,1,0-.09s0-.05,0-.08a.24.24,0,0,1,0-.08.59.59,0,0,1,0-.08s0,0,0,0l-3.09-5.51,5.19.9a3.55,3.55,0,0,0,2.67,3.18v10.9a.86.86,0,0,0,1.71,0v-10.9a3.57,3.57,0,0,0,2.38-2l5.77,1-3.38,6s0,0,0,0l0,.09,0,.07s0,.06,0,.08v.1s0,0,0,0v1.38a4.83,4.83,0,0,0,9.65,0V457.2s0-.07,0-.1,0-.05,0-.08,0,0,0-.07l0-.09s0,0,0,0l-4-7.08S345.72,449.72,345.72,449.71ZM327.43,455a3.12,3.12,0,1,1-6.23,0v-.52h6.23Zm-.6-2.23h-5l2.51-4.48Zm7.83-2.59a1.83,1.83,0,1,1,1.83-1.83A1.83,1.83,0,0,1,334.66,450.19Zm13.45,8.43a3.12,3.12,0,1,1-6.23,0v-.53h6.23Zm-5.63-2.23,2.52-4.48,2.51,4.48Z" transform="translate(-313.88 -432.52)"/><path class="a" d="M334.66,440.78a.86.86,0,0,0,.85-.86v-.05a.83.83,0,0,0-.85-.83.88.88,0,0,0-.86.88A.86.86,0,0,0,334.66,440.78Z" transform="translate(-313.88 -432.52)"/></svg>