<svg xmlns="http://www.w3.org/2000/svg" viewBox="0 0 41.55 41.55"><defs><style>.a{fill:#2a3b4d;}</style></defs><title>search</title><path class="a" d="M291.29,206.35a20.79,20.79,0,1,0-.37,29.73l1.19,1.19a.85.85,0,0,0,1.2,0,.85.85,0,0,0,0-1.21l-9.24-9.24a9.5,9.5,0,1,0-1.16,1.25l6.8,6.81a19.06,19.06,0,1,1,6-13.5l0,.37a.87.87,0,0,0,.76.95.86.86,0,0,0,.94-.76l0-.41s0-.05,0-.08A20.64,20.64,0,0,0,291.29,206.35Zm-22.45,14.7a7.76,7.76,0,1,1,7.75,7.75A7.77,7.77,0,0,1,268.84,221.05Z" transform="translate(-255.82 -200.27)"/></svg>