<svg xmlns="http://www.w3.org/2000/svg" viewBox="0 0 41.55 41.55"><defs><style>.a{fill:#2a3b4d;}</style></defs><title>skyscraper</title><path class="a" d="M334.66,490.58a20.78,20.78,0,1,0,13.22,36.8l0,0,.07-.07,0-.06.05-.07,0-.07,0-.08a.24.24,0,0,1,0-.08.19.19,0,0,0,0-.08.28.28,0,0,0,0-.09s0,0,0,0v0a.31.31,0,0,0,0-.1.17.17,0,0,0,0-.07l0-.08,0-.08a.16.16,0,0,0,0-.07.35.35,0,0,0-.05-.08l0,0,0,0-.06-.06-.06-.05-.07,0-.07,0-.08,0-.08,0-.08,0H342.7V509.65a.85.85,0,0,0-1.36-.68l-2.44,1.82V500.73a.85.85,0,0,0-.85-.85h-.74v-1.67a.87.87,0,0,0-.86-.86h-3.22a.86.86,0,0,0-.85.86v1.67h-5.12a.85.85,0,0,0-.86.85v22.63a.86.86,0,0,0,1.71,0V501.58h5.12a.86.86,0,0,0,.86-.85v-1.67h1.51v1.67a.85.85,0,0,0,.85.85h.74v10.49l-3.46,2.59a.88.88,0,0,0-.34.69v10.52h-6.13a.86.86,0,1,0,0,1.71h17.41a19.07,19.07,0,1,1,9.05-16.23A18.9,18.9,0,0,1,350,522.62a.86.86,0,1,0,1.38,1,20.78,20.78,0,0,0-16.76-33.05Zm2.53,35.29H335.1v-10.1l5.89-4.41v14.51Z" transform="translate(-313.88 -490.58)"/><path class="a" d="M330.72,506.09a.86.86,0,0,0,.86-.85v-.95a.86.86,0,1,0-1.71,0v.95A.85.85,0,0,0,330.72,506.09Z" transform="translate(-313.88 -490.58)"/><path class="a" d="M334.58,506.09a.85.85,0,0,0,.85-.85v-.95a.85.85,0,1,0-1.7,0v.95A.85.85,0,0,0,334.58,506.09Z" transform="translate(-313.88 -490.58)"/><path class="a" d="M329.87,510a.86.86,0,1,0,1.71,0v-1a.86.86,0,0,0-.86-.85.85.85,0,0,0-.85.85Z" transform="translate(-313.88 -490.58)"/><path class="a" d="M333.73,510a.85.85,0,1,0,1.7,0v-1a.85.85,0,1,0-1.7,0Z" transform="translate(-313.88 -490.58)"/><path class="a" d="M329.87,514.73a.85.85,0,0,0,.85.85.86.86,0,0,0,.86-.85v-1a.86.86,0,0,0-.86-.85.85.85,0,0,0-.85.85Z" transform="translate(-313.88 -490.58)"/></svg>