<svg xmlns="http://www.w3.org/2000/svg" viewBox="0 0 41.55 41.55"><defs><style>.a{fill:#2a3b4d;}</style></defs><title>speedometer</title><path class="a" d="M407.12,206.07l-.06,0-.32-.26a.85.85,0,0,0-1.16.09l-11.87,12.86a2.51,2.51,0,0,0-1-.21,2.55,2.55,0,1,0,2.54,2.55,2.61,2.61,0,0,0-.3-1.18l11.3-12.25a18.9,18.9,0,0,1,5.51,12.57h-5.36a.86.86,0,0,0,0,1.71h5.36a19.09,19.09,0,0,1-18.2,18.19v-5.35a.85.85,0,0,0-.85-.85.86.86,0,0,0-.86.85v5.35a19.09,19.09,0,0,1-18.19-18.19H379a.86.86,0,0,0,0-1.71h-5.35A19.09,19.09,0,0,1,391.86,202v5.35a.86.86,0,0,0,.86.85.85.85,0,0,0,.85-.85v-6.23a.85.85,0,0,0-.85-.85,20.77,20.77,0,1,0,14.4,5.8Zm-14.4,15.81a.84.84,0,0,1-.84-.83.85.85,0,0,1,.84-.84.87.87,0,0,1,.56.22h0a.84.84,0,0,1,.26.61A.83.83,0,0,1,392.72,221.88Z" transform="translate(-371.94 -200.27)"/></svg>