<svg xmlns="http://www.w3.org/2000/svg" viewBox="0 0 41.55 41.55"><defs><style>.a{fill:#2a3b4d;}</style></defs><title>speech</title><path class="a" d="M458,347.23a.86.86,0,0,0,.85-.86V331.48a.86.86,0,0,0-.85-.86H437.12a.87.87,0,0,0-.86.86v14.89a.87.87,0,0,0,.86.86h1.14v3.13a.83.83,0,0,0,.41.73.88.88,0,0,0,.44.12.79.79,0,0,0,.4-.1l7.22-3.88Zm-11.88-1.61L440,348.93v-2.56a.85.85,0,0,0-.85-.85H438V332.33h19.17v13.19H446.51A.79.79,0,0,0,446.11,345.62Z" transform="translate(-430 -316.39)"/><path class="a" d="M443.09,324.65V329a.86.86,0,0,0,.86.85.85.85,0,0,0,.85-.85V325.5H464v13.19h-1.14a.86.86,0,0,0-.86.85v2.56l-1.13-.61a.85.85,0,0,0-1.16.34A.86.86,0,0,0,460,343l2.39,1.29a.86.86,0,0,0,.41.1.88.88,0,0,0,.44-.12.86.86,0,0,0,.41-.73V340.4h1.14a.86.86,0,0,0,.85-.86V324.65a.86.86,0,0,0-.85-.86H444A.87.87,0,0,0,443.09,324.65Z" transform="translate(-430 -316.39)"/><path class="a" d="M431.71,337.17a19.08,19.08,0,0,1,28.4-16.64.85.85,0,0,0,.84-1.48,20.78,20.78,0,0,0-28.29,28.29.85.85,0,0,0,.74.43.8.8,0,0,0,.42-.11.84.84,0,0,0,.32-1.16A19.09,19.09,0,0,1,431.71,337.17Z" transform="translate(-430 -316.39)"/><path class="a" d="M468.9,327a.86.86,0,0,0-1.49.84,19.07,19.07,0,0,1-26,26,.86.86,0,0,0-.84,1.49A20.78,20.78,0,0,0,468.9,327Z" transform="translate(-430 -316.39)"/><path class="a" d="M453.58,334.61H440.69a.85.85,0,0,0-.85.85.86.86,0,0,0,.85.86h12.89a.86.86,0,0,0,.85-.86A.85.85,0,0,0,453.58,334.61Z" transform="translate(-430 -316.39)"/><path class="a" d="M453.58,338.41H440.69a.86.86,0,0,0-.85.86.85.85,0,0,0,.85.85h12.89a.85.85,0,0,0,.85-.85A.86.86,0,0,0,453.58,338.41Z" transform="translate(-430 -316.39)"/><path class="a" d="M447.14,341.86h-6.45a.85.85,0,1,0,0,1.7h6.45a.85.85,0,0,0,0-1.7Z" transform="translate(-430 -316.39)"/></svg>