<svg xmlns="http://www.w3.org/2000/svg" viewBox="0 0 41.55 41.55"><defs><style>.a{fill:#2a3b4d;}</style></defs><title>switch</title><path class="a" d="M334.66,258.33a20.78,20.78,0,1,0,20.77,20.78A20.8,20.8,0,0,0,334.66,258.33Zm0,39.85a19.07,19.07,0,1,1,19.06-19.07A19.09,19.09,0,0,1,334.66,298.18Z" transform="translate(-313.88 -258.33)"/><path class="a" d="M347.52,271.6a.76.76,0,0,0-.12-.19L345,268.2a.87.87,0,0,0-1.2-.16.85.85,0,0,0-.16,1.2l1.62,2.14h-6.48a.83.83,0,0,0-.73.41l-8.1,13.35h-5.84l1.63-2.15a.86.86,0,0,0-1.37-1l-2.43,3.21a.76.76,0,0,0-.12.19.85.85,0,0,0,0,1.27,1,1,0,0,0,.11.17l2.43,3.21a.86.86,0,0,0,1.2.17.86.86,0,0,0,.17-1.2l-1.63-2.14h6.32a.85.85,0,0,0,.73-.41l8.1-13.35h6l-1.62,2.14a.85.85,0,0,0,.16,1.2.83.83,0,0,0,.52.17.86.86,0,0,0,.68-.33l2.43-3.21a.76.76,0,0,0,.12-.19.85.85,0,0,0,0-1.26Z" transform="translate(-313.88 -258.33)"/><path class="a" d="M347.52,285.36a.76.76,0,0,0-.12-.19L345,282a.85.85,0,0,0-1.2-.16.84.84,0,0,0-.16,1.19l1.62,2.15h-5.84L337,281.26a.85.85,0,0,0-1.46.88l2.6,4.29a.85.85,0,0,0,.73.41h6.32L343.61,289a.85.85,0,0,0,.16,1.2.9.9,0,0,0,.52.17A.87.87,0,0,0,345,290l2.43-3.21a1,1,0,0,0,.11-.17.86.86,0,0,0,.29-.64A.83.83,0,0,0,347.52,285.36Z" transform="translate(-313.88 -258.33)"/><path class="a" d="M321.79,272.86a1.22,1.22,0,0,0,.12.19l2.43,3.21a.87.87,0,0,0,.69.33.8.8,0,0,0,.51-.17.86.86,0,0,0,.17-1.2l-1.63-2.14h6l2.2,3.62a.86.86,0,0,0,.73.41.88.88,0,0,0,.44-.12.87.87,0,0,0,.29-1.18l-2.45-4a.83.83,0,0,0-.73-.41h-6.48l1.63-2.14a.86.86,0,0,0-.17-1.2.87.87,0,0,0-1.2.16l-2.43,3.21a1.22,1.22,0,0,0-.12.19.85.85,0,0,0,0,1.26Z" transform="translate(-313.88 -258.33)"/></svg>