<svg xmlns="http://www.w3.org/2000/svg" viewBox="0 0 42.34 42.34"><defs><style>.a{fill:#2a3b4d;}</style></defs><title>target</title><path class="a" d="M235.74,385.14a.86.86,0,0,0-.36,1.16,19,19,0,1,1-8-8,.85.85,0,0,0,1.15-.35.86.86,0,0,0-.35-1.16,20.78,20.78,0,1,0,8.69,8.66A.86.86,0,0,0,235.74,385.14Z" transform="translate(-197.76 -373.67)"/><path class="a" d="M225.29,385.56a.85.85,0,0,0-.3-1.17,12.62,12.62,0,1,0,4.38,4.38.85.85,0,0,0-1.17-.3.86.86,0,0,0-.3,1.17,10.91,10.91,0,1,1-3.78-3.78A.85.85,0,0,0,225.29,385.56Z" transform="translate(-197.76 -373.67)"/><path class="a" d="M218.53,392a.86.86,0,1,0,0-1.71,4.93,4.93,0,1,0,4.94,4.93.86.86,0,0,0-.86-.85.85.85,0,0,0-.85.85,3.23,3.23,0,1,1-3.23-3.22Z" transform="translate(-197.76 -373.67)"/><path class="a" d="M240,379.38a.85.85,0,0,0-.79-.53h-4.33v-4.33a.88.88,0,0,0-.52-.79.87.87,0,0,0-.94.19l-5.18,5.18a.86.86,0,0,0-.25.6v4.83l-10.09,10.1a.83.83,0,0,0,0,1.2.84.84,0,0,0,.6.26.87.87,0,0,0,.61-.26l10.09-10.09h4.83a.86.86,0,0,0,.6-.25l5.18-5.18A.85.85,0,0,0,240,379.38Zm-10.3.68,3.47-3.48v2.77l-3.47,3.48Zm4,4h-2.76l3.47-3.47h2.77Z" transform="translate(-197.76 -373.67)"/></svg>