<svg xmlns="http://www.w3.org/2000/svg" viewBox="0 0 41.55 40.3"><defs><style>.a{fill:#2a3b4d;}</style></defs><title>team</title><path class="a" d="M450.66,383.88h-.06a6.48,6.48,0,0,0,.06,12.95h0a6.48,6.48,0,0,0,0-12.95Zm0,11.25h0a4.77,4.77,0,0,1,0-9.54h0a4.77,4.77,0,0,1,0,9.54Z" transform="translate(-430.01 -374.45)"/><path class="a" d="M463,388.48a5.18,5.18,0,0,0,0,10.35h.05a5.18,5.18,0,1,0-.09-10.35Zm2.52,7.61a3.42,3.42,0,0,1-2.45,1,3.46,3.46,0,0,1-2.5-5.9,3.42,3.42,0,0,1,2.45-1h0a3.48,3.48,0,0,1,2.44,1,3.49,3.49,0,0,1,0,4.91Z" transform="translate(-430.01 -374.45)"/><path class="a" d="M450.78,374.45a20.75,20.75,0,0,0-18.53,30.13.84.84,0,0,0,.22.43,20.83,20.83,0,0,0,11,9.69.85.85,0,0,0,.79-.1.88.88,0,0,0,.37-.7V403.65a4.32,4.32,0,0,1,1.23-3.07,4.26,4.26,0,0,1,3-1.29l3.6,0h0a4.33,4.33,0,0,1,4.33,4.28V413.9a.85.85,0,0,0,.37.7.84.84,0,0,0,.48.16.77.77,0,0,0,.3-.06,20.78,20.78,0,0,0-7.27-40.25ZM434,404.16a3.12,3.12,0,0,1,3.09-2.9l2.76,0h0a3.13,3.13,0,0,1,3.13,3.09v8.3A19.2,19.2,0,0,1,434,404.16Zm24.66,8.47v-8.19a3.11,3.11,0,0,1,3.08-3.15l2.77,0h0a3.13,3.13,0,0,1,3.13,2.9A19.16,19.16,0,0,1,458.61,412.63Zm5.83-13.07-2.77,0a4.72,4.72,0,0,0-3.39,1.45,1.37,1.37,0,0,0-.16.18,6.09,6.09,0,0,0-5.6-3.66l-3.6,0a6,6,0,0,0-5.45,3.61,4.81,4.81,0,0,0-3.64-1.66h0l-2.77,0a4.79,4.79,0,0,0-3.4,1.45,4.52,4.52,0,0,0-.69.89,18.9,18.9,0,0,1-1.22-6.66,19.07,19.07,0,1,1,36.93,6.68A4.91,4.91,0,0,0,464.44,399.56Z" transform="translate(-430.01 -374.45)"/><path class="a" d="M438.32,388.45a5.18,5.18,0,0,0,0,10.36h.05a5.19,5.19,0,0,0,5.13-5.22,5.12,5.12,0,0,0-1.55-3.65A5.2,5.2,0,0,0,438.32,388.45Zm2.52,7.61a3.47,3.47,0,1,1-2.51-5.9h0a3.47,3.47,0,0,1,2.48,5.9Z" transform="translate(-430.01 -374.45)"/></svg>