<svg xmlns="http://www.w3.org/2000/svg" viewBox="0 0 41.55 41.55"><defs><style>.a{fill:#2a3b4d;}</style></defs><title>temple</title><path class="a" d="M413.49,511.35a20.77,20.77,0,1,0-7.55,16l0,0,.06-.07.05-.06.05-.07a.16.16,0,0,1,0-.07l0-.08,0-.08s0,0,0-.08a.28.28,0,0,1,0-.09v-.07a.38.38,0,0,1,0-.1s0-.05,0-.07,0-.06,0-.08a.2.2,0,0,0,0-.08l0-.07a.35.35,0,0,1-.05-.08l0,0,0,0-.07-.06-.06-.05-.07,0-.07,0-.08,0-.08,0-.07,0H387a.86.86,0,1,0,0,1.71h15.71a19.07,19.07,0,1,1,9.05-16.23,18.91,18.91,0,0,1-3.53,11h-3.71V514a.86.86,0,1,0-1.71,0v8.38h-3.5V514a.85.85,0,1,0-1.7,0v8.38h-3.5V514a.86.86,0,1,0-1.71,0v8.38h-3.49V514a.86.86,0,1,0-1.71,0v8.38h-3.5V514a.86.86,0,1,0-1.71,0v8.38h-1.26a.86.86,0,0,0-.85.86.85.85,0,0,0,.85.85h27.95a.86.86,0,0,0,.73-.41l0,0A20.58,20.58,0,0,0,413.49,511.35Z" transform="translate(-371.94 -490.58)"/><path class="a" d="M407.67,511.41a.86.86,0,0,0-.33-1l-13.56-9.55a.84.84,0,0,0-1,0l-13.57,9.55a.85.85,0,0,0,.49,1.55h27.13A.87.87,0,0,0,407.67,511.41Zm-25.25-1.11,10.87-7.66,10.87,7.66Z" transform="translate(-371.94 -490.58)"/></svg>