<svg xmlns="http://www.w3.org/2000/svg" viewBox="0 0 41.55 41.55"><defs><style>.a{fill:#2a3b4d;}</style></defs><title>thumbs-up</title><path class="a" d="M450.78,258.33a20.69,20.69,0,0,0-20.51,17.41v.09s0,0,0,.05v0a.52.52,0,0,0,0,.11v.06l0,.09,0,.06,0,.09a.21.21,0,0,0,0,.06.19.19,0,0,0,.06.07.1.1,0,0,0,0,.05l.07.06.06.05.08,0,.07,0,.07,0,.09,0H442.6v12.34H430.86a.86.86,0,1,0,0,1.71h12.59a.87.87,0,0,0,.86-.86v-.45h16.44a2.1,2.1,0,0,0,2.09-2.09v-1.64h.28a.86.86,0,0,0,.86-.85v-7.45a.87.87,0,0,0-.86-.86h-.28V275a2.1,2.1,0,0,0-2.09-2.09h-4.54l-1.52-1.53v-2.65a4.2,4.2,0,0,0-4.19-4.19.86.86,0,0,0-.85.86v3.46a10.93,10.93,0,0,1-3,7.52h-2.36v-.46a.86.86,0,0,0-.86-.85h-11.3a19.08,19.08,0,1,1,6.17,18.51.86.86,0,0,0-1.21.09.84.84,0,0,0,.09,1.2,20.78,20.78,0,1,0,13.58-36.5Zm10.35,29.06a.38.38,0,0,1-.38.38h-5.84v-2h6.22Zm-7.36-9.09h8.5v2h-8.5Zm8.5,3.73v2h-8.5v-2ZM459,274.58h1.73a.38.38,0,0,1,.38.38v1.63h-6.22v-2H459Zm-12.84,3.47v2a.85.85,0,0,0,.85.85.86.86,0,0,0,.86-.85v-2.56a12.61,12.61,0,0,0,3.47-8.7v-2.46a2.49,2.49,0,0,1,1.62,2.33v3a.86.86,0,0,0,.25.6l.6.6a.86.86,0,0,0-.63.82v2.87h-.29a.86.86,0,0,0-.85.86v7.45a.85.85,0,0,0,.85.85h.29v2h-8.89v-9.72Z" transform="translate(-430 -258.33)"/></svg>