<svg xmlns="http://www.w3.org/2000/svg" viewBox="0 0 43.83 41.55"><defs><style>.a{fill:#2a3b4d;}</style></defs><title>umbrella</title><path class="a" d="M237.63,459.06a.85.85,0,0,0-1.09.52,19.06,19.06,0,0,1-9.27,10.67.86.86,0,0,0-.37,1.15.87.87,0,0,0,.76.46.82.82,0,0,0,.4-.1,20.71,20.71,0,0,0,10.09-11.61A.85.85,0,0,0,237.63,459.06Z" transform="translate(-197.76 -432.52)"/><path class="a" d="M241.15,452.53l.11-.07a.24.24,0,0,0,.08-.06.47.47,0,0,0,.06-.09.61.61,0,0,0,.07-.1.84.84,0,0,0,.08-.2.43.43,0,0,0,0-.11,1.28,1.28,0,0,0,0-.19l0-.16a.42.42,0,0,0,0-.1,19.93,19.93,0,0,0-3.66-5.82,20.78,20.78,0,1,0-19.32,28.44H220a.78.78,0,0,0,.37-.09,4.21,4.21,0,0,0,3.83-4.18V452.17a5.29,5.29,0,0,1,7.26.23.86.86,0,0,0,1.21,0,5.29,5.29,0,0,1,7.49,0,.81.81,0,0,0,.29.19h0a.7.7,0,0,0,.25.05h.11l.16,0ZM220,472.29a2.5,2.5,0,0,1-2.49-2.49.86.86,0,0,0-1.71,0,4.12,4.12,0,0,0,.81,2.46,19.07,19.07,0,1,1,17.76-29.66,19.58,19.58,0,0,0-10.17-3.29v-.53a.86.86,0,1,0-1.71,0v.53a20.38,20.38,0,0,0-2.78.31,19.31,19.31,0,0,0-14.57,11.82.76.76,0,0,0,0,.11l0,.16a.6.6,0,0,0,0,.19s0,.07,0,.11a.88.88,0,0,0,.09.2l.06.1.06.09a.47.47,0,0,0,.09.06l.11.07a1,1,0,0,0,.18.08l.16,0H206l.18,0,.09-.05a.63.63,0,0,0,.2-.13l0,0a5.3,5.3,0,0,1,7.51,0,.86.86,0,0,0,1.21,0,5.29,5.29,0,0,1,7.26-.23V469.8A2.5,2.5,0,0,1,220,472.29ZM232,450.66a7,7,0,0,0-8.72,0,7,7,0,0,0-8.71,0,7,7,0,0,0-6.59-1.15,17.51,17.51,0,0,1,12-8.21,18.39,18.39,0,0,1,3.29-.3h.1a17.52,17.52,0,0,1,15.24,8.52A7,7,0,0,0,232,450.66Z" transform="translate(-197.76 -432.52)"/></svg>